HIERARCHY
ROOT Hips
{
    OFFSET 0.000000 0.000000 0.000000
    CHANNELS 6 Xposition Yposition Zposition Zrotation Yrotation Xrotation
    JOINT Chest
    {
        OFFSET 0.000000 1.634758 -0.000000
        CHANNELS 3 Zrotation Yrotation Xrotation
        JOINT Chest2
        {
            OFFSET 0.000000 2.197341 0.000000
            CHANNELS 3 Zrotation Yrotation Xrotation
            JOINT Neck
            {
                OFFSET 0.000000 0.961544 0.000000
                CHANNELS 3 Zrotation Yrotation Xrotation
                JOINT Head
                {
                    OFFSET 0.000000 0.632542 -0.032565
                    CHANNELS 3 Zrotation Yrotation Xrotation
                    End Site
                    {
                        OFFSET -0.000001 0.439502 2.922845
                    }
                }
            }
            JOINT LeftCollar
            {
                OFFSET 0.167536 0.778237 -0.168280
                CHANNELS 3 Zrotation Yrotation Xrotation
                JOINT LeftShoulder
                {
                    OFFSET 0.831514 -0.002900 0.006458
                    CHANNELS 3 Zrotation Yrotation Xrotation
                    JOINT LeftElbow
                    {
                        OFFSET 2.272872 -0.026639 0.059314
                        CHANNELS 3 Zrotation Yrotation Xrotation
                        JOINT LeftWrist
                        {
                            OFFSET 2.081982 -0.024402 0.054333
                            CHANNELS 3 Zrotation Yrotation Xrotation
                            JOINT LeftHandThumb1
                            {
                                OFFSET 0.218903 -0.128645 0.283837
                                CHANNELS 3 Zrotation Yrotation Xrotation
                                JOINT LeftHandThumb2
                                {
                                    OFFSET 0.137157 -0.025101 0.077902
                                    CHANNELS 3 Zrotation Yrotation Xrotation
                                    JOINT LeftHandThumb3
                                    {
                                        OFFSET 0.165752 -0.053040 0.057029
                                        CHANNELS 3 Zrotation Yrotation Xrotation
                                        End Site
                                        {
                                            OFFSET 0.213169 0.024299 0.160640
                                        }
                                    }
                                }
                            }
                            JOINT LeftHandFore1
                            {
                                OFFSET 0.767340 -0.016076 0.196678
                                CHANNELS 3 Zrotation Yrotation Xrotation
                                JOINT LeftHandFore2
                                {
                                    OFFSET 0.190807 -0.102752 -0.005489
                                    CHANNELS 3 Zrotation Yrotation Xrotation
                                    JOINT LeftHandFore3
                                    {
                                        OFFSET -0.094852 -0.088112 -0.001462
                                        CHANNELS 3 Zrotation Yrotation Xrotation
                                        End Site
                                        {
                                            OFFSET -0.120269 0.150840 0.012222
                                        }
                                    }
                                }
                            }
                            JOINT LeftHandMiddle1
                            {
                                OFFSET 0.709887 -0.008320 0.018526
                                CHANNELS 3 Zrotation Yrotation Xrotation
                                JOINT LeftHandMiddle2
                                {
                                    OFFSET 0.176999 -0.169339 -0.007693
                                    CHANNELS 3 Zrotation Yrotation Xrotation
                                    JOINT LeftHandMiddle3
                                    {
                                        OFFSET -0.101476 -0.104386 -0.013763
                                        CHANNELS 3 Zrotation Yrotation Xrotation
                                        End Site
                                        {
                                            OFFSET -0.146808 0.181365 0.034419
                                        }
                                    }
                                }
                            }
                            JOINT LeftHandRing1
                            {
                                OFFSET 0.743817 -0.005823 -0.153668
                                CHANNELS 3 Zrotation Yrotation Xrotation
                                JOINT LeftHandRing2
                                {
                                    OFFSET 0.234655 -0.263889 -0.005711
                                    CHANNELS 3 Zrotation Yrotation Xrotation
                                    JOINT LeftHandRing3
                                    {
                                        OFFSET -0.121334 -0.062312 0.000952
                                        CHANNELS 3 Zrotation Yrotation Xrotation
                                        End Site
                                        {
                                            OFFSET -0.065290 0.100721 -0.003497
                                        }
                                    }
                                }
                            }
                            JOINT LeftHandLittle1
                            {
                                OFFSET 0.689408 -0.053302 -0.308304
                                CHANNELS 3 Zrotation Yrotation Xrotation
                                JOINT LeftHandLittle2
                                {
                                    OFFSET 0.144654 -0.130498 0.009982
                                    CHANNELS 3 Zrotation Yrotation Xrotation
                                    JOINT LeftHandLittle3
                                    {
                                        OFFSET -0.110673 -0.047374 -0.001868
                                        CHANNELS 3 Zrotation Yrotation Xrotation
                                        End Site
                                        {
                                            OFFSET -0.110368 0.155251 0.002209
                                        }
                                    }
                                }
                            }
                        }
                    }
                }
            }
            JOINT RightCollar
            {
                OFFSET -0.167536 0.778237 -0.168280
                CHANNELS 3 Zrotation Yrotation Xrotation
                JOINT RightShoulder
                {
                    OFFSET -0.831514 -0.002900 0.006457
                    CHANNELS 3 Zrotation Yrotation Xrotation
                    JOINT RightElbow
                    {
                        OFFSET -2.272872 -0.026639 0.059313
                        CHANNELS 3 Zrotation Yrotation Xrotation
                        JOINT RightWrist
                        {
                            OFFSET -2.081982 -0.024402 0.054331
                            CHANNELS 3 Zrotation Yrotation Xrotation
                            JOINT RightHandThumb1
                            {
                                OFFSET -0.218911 -0.128571 0.283837
                                CHANNELS 3 Zrotation Yrotation Xrotation
                                JOINT RightHandThumb2
                                {
                                    OFFSET -0.137157 -0.025101 0.077902
                                    CHANNELS 3 Zrotation Yrotation Xrotation
                                    JOINT RightHandThumb3
                                    {
                                        OFFSET -0.164450 -0.055358 0.058575
                                        CHANNELS 3 Zrotation Yrotation Xrotation
                                        End Site
                                        {
                                            OFFSET -0.189663 -0.017644 0.188555
                                        }
                                    }
                                }
                            }
                            JOINT RightHandFore1
                            {
                                OFFSET -0.767344 -0.015991 0.196679
                                CHANNELS 3 Zrotation Yrotation Xrotation
                                JOINT RightHandFore2
                                {
                                    OFFSET -0.190833 -0.102710 -0.005499
                                    CHANNELS 3 Zrotation Yrotation Xrotation
                                    JOINT RightHandFore3
                                    {
                                        OFFSET 0.092940 -0.086121 0.026596
                                        CHANNELS 3 Zrotation Yrotation Xrotation
                                        End Site
                                        {
                                            OFFSET 0.122272 0.148713 -0.017338
                                        }
                                    }
                                }
                            }
                            JOINT RightHandMiddle1
                            {
                                OFFSET -0.709887 -0.008302 0.018525
                                CHANNELS 3 Zrotation Yrotation Xrotation
                                JOINT RightHandMiddle2
                                {
                                    OFFSET -0.176980 -0.169354 -0.007684
                                    CHANNELS 3 Zrotation Yrotation Xrotation
                                    JOINT RightHandMiddle3
                                    {
                                        OFFSET 0.093118 -0.098727 0.054465
                                        CHANNELS 3 Zrotation Yrotation Xrotation
                                        End Site
                                        {
                                            OFFSET 0.154356 0.176268 -0.027093
                                        }
                                    }
                                }
                            }
                            JOINT RightHandRing1
                            {
                                OFFSET -0.743819 -0.005785 -0.153669
                                CHANNELS 3 Zrotation Yrotation Xrotation
                                JOINT RightHandRing2
                                {
                                    OFFSET -0.234674 -0.263872 -0.005714
                                    CHANNELS 3 Zrotation Yrotation Xrotation
                                    JOINT RightHandRing3
                                    {
                                        OFFSET 0.119753 -0.061337 0.022408
                                        CHANNELS 3 Zrotation Yrotation Xrotation
                                        End Site
                                        {
                                            OFFSET 0.064701 0.101076 0.004189
                                        }
                                    }
                                }
                            }
                            JOINT RightHandLittle1
                            {
                                OFFSET -0.689403 -0.053298 -0.308303
                                CHANNELS 3 Zrotation Yrotation Xrotation
                                JOINT RightHandLittle2
                                {
                                    OFFSET -0.144660 -0.130496 0.009980
                                    CHANNELS 3 Zrotation Yrotation Xrotation
                                    JOINT RightHandLittle3
                                    {
                                        OFFSET 0.106219 -0.039165 0.040979
                                        CHANNELS 3 Zrotation Yrotation Xrotation
                                        End Site
                                        {
                                            OFFSET 0.114400 0.147781 -0.036902
                                        }
                                    }
                                }
                            }
                        }
                    }
                }
            }
        }
    }
    JOINT LeftHip
    {
        OFFSET 0.685143 0.673822 -0.044491
        CHANNELS 3 Zrotation Yrotation Xrotation
        JOINT LeftKnee
        {
            OFFSET 0.085364 -3.750208 0.017676
            CHANNELS 3 Zrotation Yrotation Xrotation
            JOINT LeftAnkle
            {
                OFFSET 0.094583 -4.155206 0.019585
                CHANNELS 3 Zrotation Yrotation Xrotation
                JOINT LeftToe
                {
                    OFFSET -0.000000 -0.395925 0.621478
                    CHANNELS 3 Zrotation Yrotation Xrotation
                    End Site
                    {
                        OFFSET -0.000000 -0.077878 0.321152
                    }
                }
            }
        }
    }
    JOINT RightHip
    {
        OFFSET -0.685143 0.673822 -0.044492
        CHANNELS 3 Zrotation Yrotation Xrotation
        JOINT RightKnee
        {
            OFFSET -0.085364 -3.750208 0.017677
            CHANNELS 3 Zrotation Yrotation Xrotation
            JOINT RightAnkle
            {
                OFFSET -0.094583 -4.155206 0.019585
                CHANNELS 3 Zrotation Yrotation Xrotation
                JOINT RightToe
                {
                    OFFSET -0.000000 -0.395925 0.621478
                    CHANNELS 3 Zrotation Yrotation Xrotation
                    End Site
                    {
                        OFFSET -0.000000 -0.077878 0.321152
                    }
                }
            }
        }
    }
}
MOTION
Frames: 6
Frame Time: 0.033333
-1.730364 7.087449 -4.797737 174.241333 13.139506 -171.029938 -4.258555 5.686786 11.745334 -4.837932 -0.532917 -2.877566 -3.537721 1.127158 6.657871 -0.082049 1.593419 14.793107 -2.010792 -5.690368 -0.031116 -28.524574 -31.886768 24.891644 178.338394 -47.520103 -179.275833 74.215057 -2.045950 -0.754610 -0.000008 -0.000007 0.000006 -19.565701 -2.695191 -25.547220 -6.744288 7.892389 7.170477 22.575224 -17.792025 1.442514 107.437294 -8.455205 -8.234974 93.156563 -20.972799 9.897308 36.747082 -7.969201 3.524820 92.868645 14.274548 9.395956 95.932442 -0.058871 -17.637568 39.492424 3.188221 6.028458 102.921997 0.362981 -1.422502 80.947578 -2.429100 4.441199 32.671196 17.304125 21.874186 108.222672 0.550377 -12.053193 77.124786 -38.255856 28.943790 2.207364 6.610388 -0.010945 43.672829 26.269915 24.945475 -178.280014 50.384361 -179.198181 -72.453773 9.231491 2.169244 0.000011 -0.000000 -0.000015 -18.570326 5.425815 25.437828 5.088680 -11.462276 2.445786 -22.575476 17.792702 1.438823 -106.446129 -6.680511 25.973139 -96.540619 -20.780434 7.321119 -36.747097 7.968362 3.525995 -87.935806 18.937939 15.010905 -88.563522 3.234934 41.717358 -39.492405 -3.187920 6.028651 -101.149918 5.574796 15.954677 -80.847809 -0.294224 8.218081 -32.671181 -17.304171 21.874155 -103.035385 -7.192970 50.551430 -89.107246 -49.746777 7.437473 -10.162567 -3.351791 -55.067402 1.157472 1.295692 83.547554 2.989938 9.472335 -35.399757 -0.000000 -0.000003 0.000004 -3.040233 0.434063 -60.292553 -1.148158 -1.294657 83.137810 0.662100 8.039006 -40.216450 -0.000000 -0.000002 0.000004
-1.814237 6.876681 -4.837624 172.309280 16.580435 -172.191223 -4.157249 8.712776 12.571840 -4.240631 -1.032818 -2.676096 -5.548990 1.769407 6.481590 -0.091895 1.784493 14.578218 -2.009208 -5.134251 -0.050252 -26.186647 -32.688828 24.791306 178.340210 -47.423477 -179.278290 74.343056 -1.356737 0.621922 -0.000001 -0.000007 0.000005 -19.565706 -2.695189 -25.547215 -6.744288 7.892387 7.170476 22.575228 -17.792011 1.442507 107.437294 -8.455208 -8.234970 93.156555 -20.972797 9.897312 36.747082 -7.969191 3.524815 92.868645 14.274547 9.395965 95.932434 -0.058871 -17.637568 39.492420 3.188236 6.028459 102.921989 0.362983 -1.422505 80.947586 -2.429105 4.441195 32.671204 17.304136 21.874182 108.222672 0.550375 -12.053190 77.124786 -38.255848 28.943798 2.106323 7.189150 0.008564 45.333202 25.953014 23.948809 -178.280624 50.356655 -179.198990 -72.419357 9.758419 1.263355 0.000003 -0.000009 -0.000015 -18.570322 5.425822 25.437826 5.088676 -11.462276 2.445785 -22.575483 17.792690 1.438830 -106.446129 -6.680508 25.973137 -96.540619 -20.780437 7.321119 -36.747101 7.968360 3.526005 -87.935814 18.937948 15.010905 -88.563522 3.234934 41.717361 -39.492420 -3.187926 6.028666 -101.149918 5.574799 15.954673 -80.847801 -0.294222 8.218083 -32.671196 -17.304174 21.874165 -103.035378 -7.192969 50.551434 -89.107246 -49.746777 7.437471 -12.907958 -3.379028 -54.560993 1.244069 1.302570 87.365585 1.883677 6.937662 -40.630650 0.000000 -0.000000 -0.000007 -5.150464 0.444199 -63.196476 -1.260065 -1.303260 88.071350 1.131657 11.072600 -41.219795 0.000000 0.000003 -0.000003
-1.894541 6.730736 -4.879109 170.343002 19.859175 -173.441406 -3.982858 11.597057 13.499256 -3.621695 -1.518731 -2.535585 -7.528730 2.384032 6.296987 -0.101518 1.971200 14.410880 -2.010444 -4.603749 -0.068717 -23.862413 -33.486275 24.667185 178.341293 -47.365231 -179.279770 74.445709 -0.677253 2.049192 0.000000 -0.000009 -0.000001 -19.565706 -2.695191 -25.547216 -6.744281 7.892384 7.170475 22.575228 -17.792013 1.442514 107.437294 -8.455207 -8.234969 93.156555 -20.972797 9.897312 36.747086 -7.969199 3.524817 92.868652 14.274545 9.395960 95.932449 -0.058866 -17.637562 39.492416 3.188228 6.028457 102.921997 0.362988 -1.422502 80.947586 -2.429110 4.441195 32.671200 17.304134 21.874178 108.222672 0.550375 -12.053192 77.124786 -38.255856 28.943802 1.984649 7.741481 0.024915 46.819141 25.919199 22.956068 -178.282455 50.273472 -179.201370 -72.418846 10.279533 0.382072 -0.000010 -0.000003 -0.000003 -18.570326 5.425818 25.437830 5.088676 -11.462275 2.445782 -22.575489 17.792706 1.438825 -106.446129 -6.680507 25.973141 -96.540619 -20.780436 7.321115 -36.747116 7.968365 3.526005 -87.935822 18.937943 15.010907 -88.563515 3.234929 41.717354 -39.492428 -3.187915 6.028660 -101.149918 5.574798 15.954673 -80.847809 -0.294224 8.218081 -32.671207 -17.304171 21.874170 -103.035378 -7.192970 50.551426 -89.107246 -49.746777 7.437476 -15.343925 -3.400141 -54.309814 1.297135 1.303927 89.698441 -0.028362 7.765978 -44.195179 -0.000001 -0.000003 -0.000004 -7.220315 0.445647 -65.370972 -1.337537 -1.303565 91.476326 2.093844 14.224735 -41.184250 0.000000 0.000002 -0.000002
-1.970839 6.680702 -4.922063 168.339737 22.940823 -174.797913 -3.764521 14.303333 14.517983 -3.014444 -1.978712 -2.424904 -9.443755 2.961359 6.105606 -0.111044 2.155994 14.282504 -2.020285 -4.103481 -0.086377 -21.623846 -34.279301 24.605576 178.341980 -47.329163 -179.280685 74.515045 -0.009503 3.501349 0.000003 -0.000002 -0.000001 -19.565701 -2.695185 -25.547220 -6.744283 7.892385 7.170475 22.575243 -17.792021 1.442516 107.437294 -8.455205 -8.234973 93.156555 -20.972803 9.897314 36.747089 -7.969202 3.524817 92.868652 14.274547 9.395965 95.932449 -0.058864 -17.637569 39.492428 3.188217 6.028461 102.921997 0.362983 -1.422504 80.947578 -2.429099 4.441200 32.671204 17.304131 21.874186 108.222672 0.550375 -12.053197 77.124786 -38.255856 28.943794 1.839167 8.257693 0.037261 48.235146 26.171825 21.979719 -178.285309 50.143566 -179.205063 -72.451042 10.827455 -0.568290 0.000001 -0.000007 -0.000007 -18.570318 5.425817 25.437826 5.088676 -11.462274 2.445786 -22.575481 17.792704 1.438830 -106.446129 -6.680508 25.973143 -96.540619 -20.780439 7.321114 -36.747101 7.968369 3.526001 -87.935814 18.937943 15.010903 -88.563515 3.234934 41.717358 -39.492413 -3.187916 6.028657 -101.149910 5.574801 15.954672 -80.847809 -0.294220 8.218084 -32.671200 -17.304171 21.874163 -103.035378 -7.192966 50.551426 -89.107239 -49.746777 7.437467 -17.399256 -3.413315 -53.832600 1.306997 1.303941 90.131805 -1.182235 9.744317 -45.705170 -0.000001 -0.000003 0.000000 -9.232454 0.436153 -66.429924 -1.369240 -1.302363 92.870491 3.357804 17.182453 -40.064781 0.000001 0.000003 0.000003
-2.042552 6.756758 -4.968180 166.275162 25.790556 -176.348022 -3.502202 16.797958 15.628674 -2.424068 -2.404728 -2.303319 -11.260459 3.496985 5.917819 -0.120614 2.341600 14.198939 -2.051040 -3.595383 -0.103586 -19.766912 -35.021564 24.909985 178.346832 -47.065960 -179.287338 74.542290 0.646148 4.952153 -0.000003 -0.000007 -0.000003 -19.565704 -2.695190 -25.547220 -6.744293 7.892384 7.170475 22.575228 -17.792021 1.442515 107.437286 -8.455206 -8.234971 93.156563 -20.972799 9.897308 36.747082 -7.969193 3.524816 92.868652 14.274545 9.395964 95.932442 -0.058864 -17.637562 39.492409 3.188234 6.028461 102.921997 0.362988 -1.422498 80.947586 -2.429103 4.441194 32.671196 17.304136 21.874184 108.222672 0.550377 -12.053196 77.124786 -38.255856 28.943798 1.696334 8.750436 0.046068 49.622227 26.627878 21.133371 -178.285065 50.153492 -179.204788 -72.573219 11.489334 -1.895136 0.000005 0.000002 -0.000014 -18.570326 5.425823 25.437830 5.088675 -11.462279 2.445777 -22.575481 17.792709 1.438827 -106.446121 -6.680508 25.973135 -96.540611 -20.780432 7.321118 -36.747101 7.968367 3.525996 -87.935814 18.937944 15.010905 -88.563522 3.234929 41.717361 -39.492416 -3.187913 6.028657 -101.149918 5.574798 15.954675 -80.847809 -0.294222 8.218079 -32.671200 -17.304173 21.874166 -103.035378 -7.192964 50.551426 -89.107246 -49.746769 7.437479 -19.327427 -3.406595 -51.965218 1.257690 1.303123 87.964714 -1.653653 11.959288 -45.652908 -0.000000 -0.000000 0.000001 -11.185356 0.411758 -65.891037 -1.343328 -1.303402 91.730873 4.598705 19.576748 -37.974628 -0.000001 0.000001 -0.000003
-2.112448 6.944931 -5.014997 164.069443 28.373478 -178.016724 -3.262518 19.048052 16.693602 -1.910272 -2.788567 -2.248255 -12.944084 3.982661 5.772480 -0.130675 2.536659 14.213493 -2.100160 -3.094223 -0.120142 -18.276718 -35.685722 25.548283 178.355743 -46.574341 -179.299591 74.479057 1.290571 6.375074 0.000014 0.000002 0.000011 -19.565704 -2.695187 -25.547216 -6.744291 7.892385 7.170477 22.575253 -17.792009 1.442512 107.437286 -8.455208 -8.234975 93.156563 -20.972795 9.897308 36.747101 -7.969193 3.524817 92.868652 14.274547 9.395962 95.932449 -0.058866 -17.637566 39.492439 3.188238 6.028461 102.921997 0.362983 -1.422498 80.947586 -2.429105 4.441195 32.671230 17.304140 21.874184 108.222672 0.550377 -12.053193 77.124786 -38.255848 28.943794 1.591836 9.218616 0.052999 51.103683 27.082876 20.571032 -178.278503 50.453060 -179.196213 -72.710640 12.140724 -3.201471 0.000013 -0.000007 -0.000009 -18.570320 5.425820 25.437830 5.088674 -11.462274 2.445781 -22.575470 17.792696 1.438828 -106.446129 -6.680505 25.973143 -96.540619 -20.780432 7.321118 -36.747093 7.968360 3.526001 -87.935806 18.937944 15.010905 -88.563515 3.234930 41.717361 -39.492409 -3.187922 6.028661 -101.149918 5.574800 15.954672 -80.847809 -0.294219 8.218080 -32.671181 -17.304173 21.874165 -103.035378 -7.192966 50.551426 -89.107239 -49.746777 7.437474 -21.227772 -3.380991 -48.967693 1.152766 1.295148 83.339401 -1.369510 14.303206 -44.525703 0.000002 0.000005 -0.000003 -13.154712 0.374463 -64.002075 -1.265146 -1.303417 88.294785 5.350915 21.106281 -35.392059 0.000003 0.000002 0.000001
